<svg xmlns="http://www.w3.org/2000/svg" width="1200" height="400" viewBox="0 0 1200 400"><rect width="100%" height="100%" fill="#DDDDDD"/><path fill="#999999" d="M270.345 201.105h15.28q5.62 0 9.8-1.41 4.18-1.41 6.96-4.03 2.77-2.62 4.14-6.38 1.37-3.76 1.37-8.4 0-4.41-1.37-7.98-1.37-3.57-4.11-6.08-2.73-2.51-6.91-3.84t-9.88-1.33h-15.28v39.45Zm-20.44-55.26h35.72q11.02 0 19.07 2.59 8.06 2.58 13.3 7.22 5.25 4.63 7.79 11.09 2.55 6.46 2.55 14.14 0 7.98-2.66 14.63t-7.98 11.44q-5.32 4.79-13.34 7.45t-18.73 2.66h-15.28v38.68h-20.44v-109.9Zm107.69 36.64 1.14 8.81q3.65-6.99 8.66-10.98 5.02-3.99 11.86-3.99 5.4 0 8.66 2.36l-1.21 14.06q-.38 1.36-1.1 1.93-.73.57-1.94.57-1.14 0-3.38-.38-2.25-.38-4.37-.38-3.12 0-5.55.92-2.43.91-4.37 2.62t-3.42 4.14q-1.48 2.43-2.78 5.55v48.03h-18.77v-77.98h11.02q2.89 0 4.03 1.03 1.14 1.03 1.52 3.69Zm74.63-5.93q8.67 0 15.77 2.81 7.11 2.81 12.16 7.98 5.06 5.17 7.79 12.62 2.74 7.44 2.74 16.64 0 9.27-2.74 16.72-2.73 7.45-7.79 12.69-5.05 5.25-12.16 8.06-7.1 2.81-15.77 2.81-8.74 0-15.88-2.81-7.15-2.81-12.2-8.06-5.05-5.24-7.83-12.69-2.77-7.45-2.77-16.72 0-9.2 2.77-16.64 2.78-7.45 7.83-12.62 5.05-5.17 12.2-7.98 7.14-2.81 15.88-2.81Zm0 65.89q9.73 0 14.4-6.54 4.68-6.53 4.68-19.15 0-12.61-4.68-19.23-4.67-6.61-14.4-6.61-9.88 0-14.63 6.65t-4.75 19.19q0 12.54 4.75 19.12 4.75 6.57 14.63 6.57Zm71.59 13.3h-18.77v-77.98h11.48q3.65 0 4.79 3.42l1.21 5.78q2.05-2.28 4.3-4.18 2.24-1.9 4.78-3.27 2.55-1.37 5.48-2.16 2.92-.8 6.42-.8 7.37 0 12.12 3.99 4.75 3.99 7.11 10.6 1.82-3.88 4.56-6.65 2.73-2.77 6-4.52 3.27-1.75 6.95-2.59 3.69-.83 7.41-.83 6.46 0 11.48 1.97 5.02 1.98 8.44 5.78 3.42 3.8 5.2 9.27 1.79 5.47 1.79 12.54v49.63h-18.77v-49.63q0-7.45-3.27-11.21-3.27-3.76-9.58-3.76-2.89 0-5.36.99t-4.33 2.85q-1.86 1.86-2.92 4.67-1.07 2.81-1.07 6.46v49.63h-18.85v-49.63q0-7.83-3.15-11.4-3.15-3.57-9.23-3.57-4.11 0-7.64 2.01-3.54 2.02-6.58 5.51v57.08Zm143.04-79.19q8.66 0 15.77 2.81 7.1 2.81 12.16 7.98 5.05 5.17 7.79 12.62 2.73 7.44 2.73 16.64 0 9.27-2.73 16.72-2.74 7.45-7.79 12.69-5.06 5.25-12.16 8.06-7.11 2.81-15.77 2.81-8.74 0-15.89-2.81-7.14-2.81-12.2-8.06-5.05-5.24-7.82-12.69-2.78-7.45-2.78-16.72 0-9.2 2.78-16.64 2.77-7.45 7.82-12.62 5.06-5.17 12.2-7.98 7.15-2.81 15.89-2.81Zm0 65.89q9.72 0 14.4-6.54 4.67-6.53 4.67-19.15 0-12.61-4.67-19.23-4.68-6.61-14.4-6.61-9.88 0-14.63 6.65t-4.75 19.19q0 12.54 4.75 19.12 4.75 6.57 14.63 6.57Zm78.81 14.52q-10.19 0-15.62-5.74t-5.43-15.85v-43.55h-7.98q-1.52 0-2.59-.98-1.06-.99-1.06-2.97v-7.45l12.54-2.05 3.95-21.28q.38-1.52 1.44-2.35 1.07-.84 2.74-.84h9.73v24.55h20.82v13.37h-20.82v42.26q0 3.65 1.78 5.7 1.79 2.05 4.91 2.05 1.74 0 2.92-.42 1.18-.41 2.05-.87.88-.46 1.56-.87.69-.42 1.37-.42.84 0 1.37.42.53.41 1.14 1.25l5.62 9.12q-4.1 3.42-9.42 5.17t-11.02 1.75Zm31.16-79.2h18.85v77.98h-18.85v-77.98Zm21.43-22.72q0 2.43-.99 4.56-.99 2.13-2.62 3.72-1.63 1.6-3.84 2.55-2.2.95-4.71.95-2.43 0-4.6-.95-2.16-.95-3.76-2.55-1.6-1.59-2.55-3.72-.95-2.13-.95-4.56 0-2.51.95-4.71.95-2.21 2.55-3.8 1.6-1.6 3.76-2.55 2.17-.95 4.6-.95 2.51 0 4.71.95 2.21.95 3.84 2.55 1.63 1.59 2.62 3.8.99 2.2.99 4.71Zm51.07 21.51q8.67 0 15.77 2.81 7.11 2.81 12.16 7.98 5.06 5.17 7.79 12.62 2.74 7.44 2.74 16.64 0 9.27-2.74 16.72-2.73 7.45-7.79 12.69-5.05 5.25-12.16 8.06-7.1 2.81-15.77 2.81-8.74 0-15.88-2.81-7.15-2.81-12.2-8.06-5.05-5.24-7.83-12.69-2.77-7.45-2.77-16.72 0-9.2 2.77-16.64 2.78-7.45 7.83-12.62 5.05-5.17 12.2-7.98 7.14-2.81 15.88-2.81Zm0 65.89q9.73 0 14.4-6.54 4.68-6.53 4.68-19.15 0-12.61-4.68-19.23-4.67-6.61-14.4-6.61-9.88 0-14.63 6.65t-4.75 19.19q0 12.54 4.75 19.12 4.75 6.57 14.63 6.57Zm69.09-61.26 1.29 6.16q2.35-2.36 4.98-4.37 2.62-2.01 5.54-3.42 2.93-1.41 6.27-2.2 3.35-.8 7.3-.8 6.38 0 11.32 2.16 4.94 2.17 8.25 6.08 3.31 3.92 5.02 9.35 1.71 5.44 1.71 11.97v49.63h-18.78v-49.63q0-7.14-3.26-11.06-3.27-3.91-9.96-3.91-4.86 0-9.12 2.2-4.26 2.21-8.06 6.01v56.39h-18.77v-77.98h11.48q3.65 0 4.79 3.42Z"/></svg>